<?xml version="1.0" standalone="no"?>
<!DOCTYPE svg PUBLIC "-//W3C//DTD SVG 20010904//EN"
 "http://www.w3.org/TR/2001/REC-SVG-20010904/DTD/svg10.dtd">
<svg version="1.0" xmlns="http://www.w3.org/2000/svg"
 width="2224.000000pt" height="1212.000000pt" viewBox="0 0 2224.000000 1212.000000"
 preserveAspectRatio="xMidYMid meet">

<g transform="translate(0.000000,1212.000000) scale(0.100000,-0.100000)"
fill="#000000" stroke="none">
<path d="M2020 6445 l0 -2715 175 0 175 0 0 -190 0 -190 755 0 755 0 2 956 3
956 290 -764 290 -763 105 -5 105 -5 70 -185 71 -185 792 -3 792 -2 0 190 0
190 190 0 c105 0 190 -3 190 -7 0 -5 -14 -87 -30 -183 -16 -96 -30 -178 -30
-182 0 -5 420 -8 933 -8 l934 0 53 490 53 490 167 0 166 0 29 -300 29 -300
157 0 156 0 11 -112 c7 -62 15 -148 18 -191 l7 -77 925 0 924 0 -5 23 c-3 12
-236 1234 -519 2714 l-513 2692 -139 3 -140 3 -35 188 -35 187 -1302 0 c-1232
0 -1303 -1 -1308 -17 -2 -10 -202 -1183 -443 -2607 l-438 -2589 -3 2417 -2
2416 -175 0 -175 0 0 190 0 190 -755 0 -755 0 -2 -982 -3 -982 -327 790 -326
789 -99 3 -98 3 -77 187 -76 187 -756 3 -756 2 0 -2715z m1981 1467 c274 -662
503 -1210 510 -1218 7 -8 24 -14 38 -12 l26 3 3 1218 2 1217 715 0 715 0 0
-2675 0 -2675 -757 0 -758 0 -466 1228 -466 1227 -34 0 -34 0 -3 -1227 -2
-1228 -715 0 -715 0 0 2675 0 2675 722 -2 721 -3 498 -1203z m5864 1186 c7
-29 1015 -5316 1015 -5323 0 -3 -396 -5 -880 -5 -831 0 -880 1 -880 18 0 9
-20 217 -45 462 -25 245 -45 450 -45 457 0 6 -7 19 -16 27 -13 14 -59 16 -349
16 -290 0 -336 -2 -349 -16 -9 -8 -16 -23 -16 -32 0 -9 -23 -219 -50 -467 -28
-247 -50 -453 -50 -457 0 -5 -400 -8 -890 -8 -599 0 -890 3 -890 10 0 6 203
1205 450 2665 248 1460 450 2659 450 2665 0 7 413 10 1270 10 l1270 0 5 -22z"/>
<path d="M8637 7983 c-20 -36 -186 -1028 -271 -1621 -68 -471 -92 -698 -76
-717 11 -13 58 -15 341 -15 314 0 328 1 342 20 11 17 8 55 -24 283 -63 446
-135 1035 -203 1667 -20 179 -39 339 -44 355 -6 22 -15 31 -34 33 -14 2 -28 0
-31 -5z m263 -1993 c22 -157 40 -294 40 -303 0 -15 -13 -17 -113 -17 l-113 0
18 133 c25 191 87 607 95 642 5 23 10 7 20 -70 7 -55 31 -228 53 -385z"/>
<path d="M11240 6445 l0 -2715 175 0 175 0 0 -190 0 -190 790 0 790 0 1 1023
c0 562 2 1018 5 1012 3 -10 304 -1639 304 -1650 0 -3 63 -5 140 -5 137 0 140
0 145 -22 8 -33 65 -342 65 -351 0 -4 253 -6 562 -5 l562 3 137 800 137 800 1
-612 1 -613 175 0 175 0 0 -190 0 -190 790 0 790 0 0 2715 0 2715 -175 0 -175
0 0 190 0 190 -1175 0 -1175 0 -5 -22 c-5 -23 -274 -1671 -276 -1692 -2 -22
-21 75 -75 384 -51 292 -101 560 -156 838 l-22 112 -137 0 -137 0 -10 48 c-6
26 -23 111 -38 190 l-29 142 -1167 0 -1168 0 0 -2715z m2304 2658 c12 -38 89
-443 142 -743 89 -510 314 -1718 324 -1745 13 -33 57 -35 69 -2 8 19 411 2471
411 2497 0 7 397 10 1140 10 l1140 0 0 -2675 0 -2675 -750 0 -750 0 -1 1798
c-1 988 -4 1808 -8 1822 -5 19 -14 25 -36 25 -23 0 -30 -6 -37 -30 -7 -26
-618 -3593 -618 -3609 0 -3 -237 -5 -527 -4 l-528 3 -322 1750 c-177 962 -325
1763 -330 1780 -7 25 -14 30 -38 30 -23 0 -31 -6 -36 -25 -4 -14 -7 -816 -8
-1782 l-1 -1758 -750 0 -750 0 0 2675 0 2675 1129 0 c1067 0 1130 -1 1135 -17z"/>
<path d="M17530 6445 l0 -2715 175 0 175 0 0 -190 0 -190 1565 0 1565 0 0 545
0 545 -175 0 -175 0 0 190 0 190 -485 0 -485 0 0 405 0 405 560 0 560 0 0 515
0 515 -175 0 -175 0 0 190 0 190 -385 0 -385 0 0 325 0 325 600 0 600 0 0 545
0 545 -175 0 -175 0 0 190 0 190 -1505 0 -1505 0 0 -2715z m2970 2170 l0 -505
-589 0 -590 0 -15 -22 c-14 -20 -16 -87 -16 -533 0 -446 2 -513 16 -533 l15
-22 550 0 549 0 0 -475 0 -475 -549 0 -550 0 -15 -22 c-14 -20 -16 -95 -16
-613 0 -518 2 -593 16 -613 l15 -22 650 0 649 0 0 -505 0 -505 -1525 0 -1525
0 0 2675 0 2675 1465 0 1465 0 0 -505z"/>
</g>
</svg>
